<?xml version="1.0" standalone="no"?>
<!DOCTYPE svg PUBLIC "-//W3C//DTD SVG 20010904//EN"
 "http://www.w3.org/TR/2001/REC-SVG-20010904/DTD/svg10.dtd">
<svg version="1.0" xmlns="http://www.w3.org/2000/svg"
 width="1381.000000pt" height="1391.000000pt" viewBox="0 0 1381.000000 1391.000000"
 preserveAspectRatio="xMidYMid meet">

<g transform="translate(0.000000,1391.000000) scale(0.100000,-0.100000)"
fill="#ffffff" stroke="none">
<path d="M3905 13770 c-1265 -99 -2326 -670 -2995 -1610 -384 -538 -618 -1176
-705 -1915 -26 -220 -32 -735 -10 -905 52 -418 194 -903 460 -1575 265 -670
515 -1204 1497 -3205 437 -889 542 -1107 735 -1525 370 -800 614 -1392 791
-1920 71 -210 182 -584 182 -613 0 -8 3 -13 6 -9 16 15 -101 516 -200 857
-267 925 -642 1865 -1628 4085 -962 2164 -1293 3055 -1416 3813 -23 146 -23
582 1 800 117 1051 536 1866 1255 2441 667 534 1597 816 2532 770 610 -30
1160 -170 1727 -439 113 -54 122 -57 103 -32 -91 118 -280 417 -280 442 0 11
270 -92 457 -175 84 -37 383 -181 664 -321 l511 -254 137 78 c636 367 1225
579 1851 669 160 22 685 26 825 5 537 -81 978 -274 1404 -616 436 -350 875
-930 1110 -1466 338 -773 405 -1613 210 -2620 -157 -805 -468 -1687 -1134
-3215 -542 -1243 -747 -1736 -960 -2300 -359 -953 -591 -1818 -694 -2594 -29
-213 -25 -223 14 -36 143 687 355 1363 663 2115 255 623 435 1017 952 2085
628 1297 847 1774 1059 2305 671 1677 813 2930 460 4065 -300 965 -1010 1892
-1810 2366 -891 527 -1966 590 -3150 183 -405 -139 -902 -379 -1265 -610 -56
-35 -106 -64 -112 -64 -6 0 -59 34 -119 76 -661 463 -1450 756 -2290 850 -162
18 -675 27 -838 14z"/>
<path d="M6211 12983 c385 -573 1197 -1067 1902 -1158 153 -19 406 -19 549 1
213 29 428 95 583 179 131 71 132 74 24 57 -143 -22 -579 -21 -734 1 -172 26
-318 61 -494 119 -133 44 -248 98 -834 389 -595 296 -1005 489 -1038 489 -5 0
14 -35 42 -77z"/>
<path d="M4010 12929 c-783 -39 -1627 -448 -2184 -1057 -515 -563 -799 -1225
-857 -2002 -41 -557 102 -1360 396 -2220 273 -797 711 -1749 1091 -2371 132
-216 194 -271 181 -160 -8 66 -44 174 -172 521 -652 1763 -975 2898 -1036
3635 -17 210 -7 634 20 809 72 464 233 846 521 1230 352 472 815 817 1370
1024 234 87 457 142 730 179 187 25 639 25 820 0 326 -46 620 -127 1213 -333
411 -144 557 -180 557 -140 0 8 -26 43 -57 77 -120 129 -498 344 -873 497
-579 234 -1161 340 -1720 311z"/>
<path d="M6844 3665 c-317 -47 -627 -185 -874 -390 -520 -432 -895 -1199
-1065 -2175 -29 -167 -61 -439 -69 -585 l-6 -100 44 190 c248 1079 620 1876
1088 2331 263 255 512 392 833 457 158 31 472 31 621 -1 319 -69 569 -208 814
-452 457 -456 800 -1228 1021 -2300 l48 -235 -5 125 c-17 393 -84 822 -184
1190 -313 1149 -924 1827 -1752 1945 -126 18 -390 18 -514 0z"/>
<path d="M3871 464 c0 -11 3 -14 6 -6 3 7 2 16 -1 19 -3 4 -6 -2 -5 -13z"/>
<path d="M10311 194 c0 -11 3 -14 6 -6 3 7 2 16 -1 19 -3 4 -6 -2 -5 -13z"/>
</g>
</svg>
