<?xml version="1.0" standalone="no"?>
<!DOCTYPE svg PUBLIC "-//W3C//DTD SVG 20010904//EN"
 "http://www.w3.org/TR/2001/REC-SVG-20010904/DTD/svg10.dtd">
<svg version="1.0" xmlns="http://www.w3.org/2000/svg"
 width="2973.000000pt" height="1122.000000pt" viewBox="0 0 2973.000000 1122.000000"
 preserveAspectRatio="xMidYMid meet">

<g transform="translate(0.000000,1122.000000) scale(0.100000,-0.100000)"
fill="#000000" stroke="none">
<path d="M21410 10997 c-240 -74 -450 -260 -679 -602 -161 -239 -230 -359
-352 -610 -113 -232 -186 -413 -334 -830 -172 -483 -292 -853 -419 -1290 -181
-624 -433 -1659 -600 -2470 -34 -163 -65 -286 -78 -310 -11 -22 -58 -103 -103
-180 -45 -77 -103 -178 -130 -225 -111 -197 -314 -496 -459 -675 -212 -264
-311 -366 -431 -444 -105 -69 -174 -93 -261 -94 -87 0 -127 20 -158 78 -19 36
-21 56 -20 205 0 194 11 268 90 600 86 361 143 573 263 973 191 634 412 1270
554 1597 66 151 117 293 117 326 0 88 -235 71 -375 -27 -90 -63 -160 -126
-229 -209 -69 -81 -207 -281 -276 -398 -23 -40 -46 -74 -50 -77 -4 -2 -15 46
-25 108 -32 202 -80 303 -200 423 -216 216 -519 266 -880 144 -200 -67 -420
-214 -610 -405 -138 -138 -222 -242 -339 -420 -218 -330 -373 -660 -497 -1060
-29 -93 -65 -190 -81 -215 -15 -25 -45 -95 -66 -156 -104 -294 -443 -854 -691
-1142 -178 -206 -382 -317 -546 -295 -117 15 -184 57 -224 142 -25 54 -26 63
-25 221 0 172 15 311 60 560 39 215 93 423 277 1060 91 316 186 654 212 750
122 460 117 447 240 675 381 712 518 970 556 1048 l43 87 781 0 c880 0 825 -5
825 74 0 82 58 76 -778 76 -408 0 -742 2 -742 5 0 3 65 135 144 294 190 380
358 767 440 1016 86 262 118 450 92 539 -30 101 -127 176 -227 176 -64 0 -211
-44 -285 -85 -97 -54 -230 -163 -344 -281 -156 -161 -233 -271 -378 -540 -129
-238 -228 -476 -382 -916 l-73 -208 -578 0 c-645 0 -613 4 -607 -68 2 -25 11
-41 31 -56 28 -21 38 -21 568 -24 296 -1 539 -5 539 -8 0 -3 -20 -72 -44 -152
-164 -539 -329 -1254 -540 -2342 -49 -253 -93 -452 -104 -475 -11 -22 -43 -92
-72 -155 -96 -211 -351 -642 -503 -850 -88 -121 -289 -320 -390 -388 -160
-106 -306 -159 -410 -148 -142 15 -194 74 -185 210 6 76 63 281 127 450 21 56
49 133 61 171 36 112 120 330 238 620 154 378 229 588 322 903 113 386 136
509 147 792 9 237 -23 378 -112 498 -33 46 -57 67 -106 91 -55 28 -72 31 -149
31 -135 0 -249 -43 -379 -145 -82 -63 -401 -383 -515 -515 -185 -216 -491
-662 -717 -1045 -42 -71 -133 -226 -203 -344 -70 -117 -172 -300 -228 -405
-112 -211 -148 -275 -148 -263 0 4 157 494 349 1090 489 1514 463 1430 468
1518 12 178 -63 277 -244 324 -151 39 -267 -53 -345 -275 -11 -30 -138 -523
-282 -1095 l-263 -1040 -82 -175 c-164 -350 -336 -603 -586 -859 -147 -151
-241 -230 -400 -336 -204 -136 -414 -226 -615 -261 -175 -30 -411 -4 -537 60
-76 38 -165 140 -217 249 -64 132 -71 176 -71 432 0 226 13 362 56 575 29 144
72 320 79 320 4 0 24 -22 47 -49 113 -140 302 -243 514 -281 90 -17 289 -14
388 5 226 43 434 161 640 360 143 139 246 278 334 455 121 241 175 428 184
641 9 211 -25 384 -112 564 -111 228 -301 392 -525 452 -98 26 -331 23 -469
-6 -453 -96 -900 -455 -1245 -1001 -187 -294 -337 -677 -411 -1045 -59 -290
-67 -510 -29 -800 59 -464 339 -888 669 -1016 297 -116 800 -59 1200 136 241
117 396 226 589 414 137 134 237 253 356 421 40 58 77 109 81 114 4 4 -53
-232 -127 -525 -73 -294 -134 -550 -134 -570 0 -40 30 -91 71 -122 38 -28 110
-33 164 -13 60 23 98 70 125 153 56 174 600 1261 882 1763 324 575 505 858
819 1277 327 437 493 579 717 613 57 9 77 9 99 -2 25 -12 28 -19 25 -55 -4
-73 -50 -210 -133 -396 -76 -169 -312 -733 -434 -1032 -136 -337 -300 -912
-349 -1225 -77 -492 39 -894 291 -1013 61 -28 80 -32 175 -35 140 -5 229 14
360 80 322 161 647 518 997 1093 l91 150 -7 -90 c-5 -50 -8 -225 -8 -390 0
-282 1 -305 23 -385 55 -202 172 -379 289 -436 48 -24 67 -28 147 -27 375 2
830 359 1163 913 45 74 110 187 145 250 l63 116 1 -186 c1 -330 62 -551 214
-784 134 -205 253 -278 453 -277 375 1 788 322 1212 941 44 63 117 171 162
239 46 69 85 126 86 127 1 2 -1 -41 -6 -94 -12 -140 -2 -528 18 -642 41 -244
116 -412 247 -556 94 -102 200 -131 350 -95 104 24 148 46 288 138 155 103
250 182 394 327 193 196 387 447 568 733 115 182 110 175 103 133 -40 -273
-61 -626 -46 -788 32 -337 162 -532 339 -508 62 8 168 55 254 112 218 145 556
569 792 994 149 267 356 686 356 718 0 37 -40 72 -82 72 -37 0 -72 -37 -94
-98 -141 -395 -545 -1077 -788 -1330 -105 -109 -227 -195 -315 -222 -89 -28
-106 -26 -123 13 -32 70 -42 170 -30 295 20 200 42 287 202 822 32 107 97 332
144 500 83 301 455 1571 475 1622 5 14 104 201 219 415 452 839 1021 1944
1210 2348 187 402 334 826 412 1194 39 179 18 325 -58 404 -70 74 -191 94
-322 54z m212 -229 c18 -33 15 -251 -6 -365 -30 -165 -103 -384 -256 -768
-175 -439 -300 -711 -612 -1335 -254 -510 -659 -1273 -635 -1199 3 9 24 76 47
150 344 1103 478 1501 732 2169 75 195 159 420 188 500 70 192 223 558 267
640 96 178 233 281 275 208z m-6351 -1024 c10 -45 10 -71 0 -131 -14 -80 -56
-249 -95 -380 -52 -172 -261 -669 -472 -1120 l-47 -103 -109 0 c-59 0 -108 4
-108 9 0 19 135 402 226 643 52 139 138 368 190 508 151 405 209 511 321 584
37 25 71 45 75 45 4 1 12 -24 19 -55z m-783 -2081 c-126 -246 -367 -695 -379
-708 -13 -13 3 39 211 705 26 85 51 165 55 178 6 21 11 22 111 22 l104 0 -102
-197z m-5863 -763 c110 -38 189 -116 236 -230 31 -77 37 -242 14 -364 -18 -97
-129 -422 -204 -602 -123 -289 -349 -603 -525 -729 -131 -93 -286 -145 -435
-145 -157 0 -293 55 -405 164 -59 57 -116 146 -116 180 0 8 22 72 48 143 208
550 532 1137 755 1370 119 124 254 207 380 233 59 12 188 2 252 -20z m8384
-19 c128 -40 213 -115 280 -248 63 -127 76 -185 75 -358 -1 -82 -6 -168 -12
-190 -5 -22 -39 -110 -75 -195 -118 -285 -204 -556 -270 -850 -34 -155 -35
-156 -137 -340 -241 -435 -540 -860 -765 -1086 -150 -150 -342 -278 -470 -313
-63 -17 -174 -13 -220 8 -76 34 -135 124 -156 235 -13 72 1 205 47 436 127
644 394 1391 748 2098 239 477 460 732 701 808 61 19 184 17 254 -5z"/>
<path d="M3210 9964 c-485 -33 -786 -88 -1133 -205 -400 -134 -677 -299 -933
-554 -267 -266 -438 -572 -511 -915 -25 -120 -25 -420 0 -540 59 -277 177
-505 361 -698 113 -119 213 -193 353 -265 186 -94 344 -139 544 -153 93 -7 96
-6 112 17 25 34 21 76 -9 106 -23 23 -30 25 -78 19 -78 -10 -288 19 -396 54
-236 77 -421 202 -554 374 -104 134 -163 244 -206 385 -154 495 -28 1047 334
1455 244 276 659 511 1086 614 342 83 527 106 865 106 537 -1 900 -78 1310
-279 285 -140 523 -345 722 -623 150 -211 255 -443 328 -727 143 -560 123
-1180 -65 -1925 -175 -695 -541 -1452 -1005 -2076 -234 -314 -535 -606 -840
-813 -346 -235 -807 -440 -1145 -510 -250 -52 -580 -67 -813 -36 -440 58 -779
257 -1026 603 -106 147 -182 327 -211 502 -27 156 -9 394 42 560 23 74 84 198
122 249 17 23 26 48 26 70 0 42 -7 54 -37 70 -61 32 -115 -33 -172 -208 -69
-211 -76 -258 -75 -511 0 -207 2 -234 26 -337 111 -469 410 -814 923 -1063
304 -148 818 -269 1255 -295 115 -7 334 7 475 31 420 70 936 323 1330 650 154
128 470 441 578 572 274 331 540 733 712 1074 292 575 496 1175 589 1725 48
288 60 435 60 768 1 317 -6 420 -45 650 -92 548 -348 1076 -685 1411 -362 360
-873 589 -1459 654 -99 11 -649 21 -755 14z"/>
<path d="M24345 9954 c-16 -2 -79 -9 -140 -15 -237 -23 -576 -95 -805 -170
-640 -210 -1228 -638 -1716 -1250 -250 -314 -510 -775 -677 -1199 -577 -1466
-443 -3202 320 -4150 97 -120 293 -314 395 -391 221 -165 448 -266 728 -324
100 -21 166 -27 330 -32 313 -9 546 21 946 121 466 117 687 208 913 376 140
104 328 309 416 455 41 68 41 66 14 -80 -11 -60 -35 -198 -55 -305 -64 -362
-191 -836 -296 -1105 -228 -586 -616 -1150 -993 -1442 -152 -118 -175 -141
-175 -175 0 -36 40 -78 74 -78 14 0 72 17 128 39 419 157 865 541 1164 1001
276 423 445 795 584 1285 112 395 169 726 250 1450 56 504 59 526 91 659 54
220 122 393 227 579 67 119 102 159 202 231 24 17 51 43 59 57 13 23 12 30 -5
65 -18 36 -22 39 -59 38 -36 -2 -47 -9 -110 -76 -75 -79 -115 -102 -234 -133
-108 -28 -268 -45 -426 -45 -160 0 -249 11 -582 75 -268 52 -369 65 -563 72
-381 13 -648 -50 -957 -227 -176 -102 -262 -181 -368 -345 -63 -95 -175 -317
-175 -344 0 -24 54 -71 81 -71 11 0 29 5 40 10 21 12 68 100 89 165 42 134
194 260 362 300 104 24 359 19 718 -15 674 -64 773 -65 1005 -6 211 53 510
159 728 260 88 40 87 45 17 -69 -83 -137 -405 -715 -471 -846 -79 -157 -194
-412 -214 -476 -18 -56 -124 -264 -176 -344 -114 -176 -313 -385 -459 -480
-47 -31 -128 -74 -181 -97 -361 -152 -692 -188 -1189 -126 -495 61 -826 209
-1139 509 -406 389 -628 898 -708 1619 -22 208 -22 693 1 951 71 787 336 1559
751 2190 322 490 759 921 1239 1223 125 79 447 238 580 287 214 79 548 162
757 189 392 50 809 17 1129 -91 106 -35 306 -133 404 -197 277 -180 494 -486
576 -810 75 -297 64 -602 -31 -889 -65 -194 -205 -439 -337 -590 -209 -238
-492 -392 -816 -444 -149 -23 -348 -15 -494 22 -127 32 -160 29 -176 -17 -15
-43 6 -76 68 -104 47 -22 76 -26 225 -33 95 -5 215 -5 269 -1 399 35 750 218
995 520 291 359 442 808 424 1260 -12 292 -97 553 -265 805 -90 136 -264 310
-400 399 -184 122 -522 254 -793 310 -262 54 -410 68 -759 71 -179 2 -338 1
-355 -1z"/>
<path d="M3295 8923 c-79 -41 -112 -92 -190 -293 -31 -80 -108 -266 -170 -415
-63 -148 -150 -367 -193 -485 -99 -266 -498 -1415 -639 -1838 -289 -871 -527
-1763 -597 -2243 -38 -255 -3 -349 128 -349 124 0 167 60 394 556 248 541 704
1839 1106 3147 257 833 290 957 381 1410 55 275 64 361 44 414 -14 38 -57 83
-96 99 -43 19 -131 17 -168 -3z"/>
<path d="M28356 7070 c-308 -49 -646 -240 -929 -525 -272 -273 -464 -570 -610
-940 -126 -319 -180 -591 -194 -975 -19 -537 127 -992 406 -1270 135 -134 278
-199 489 -221 205 -21 403 14 587 105 272 134 525 344 744 616 295 366 532
877 626 1345 45 226 58 372 52 580 -6 216 -24 317 -88 510 -140 421 -380 672
-720 755 -97 23 -277 33 -363 20z m419 -164 c175 -86 275 -312 275 -624 0
-312 -62 -682 -180 -1071 -136 -451 -244 -708 -440 -1056 -84 -147 -275 -428
-367 -537 -168 -201 -397 -325 -581 -316 -95 5 -135 23 -218 100 -110 103
-172 269 -195 515 -31 347 85 862 336 1483 236 585 426 924 674 1204 149 169
331 295 476 330 11 3 52 4 90 3 55 -2 83 -9 130 -31z"/>
</g>
</svg>
